<?xml version="1.0" encoding="utf-8"?>
<!-- Generator: Adobe Illustrator 22.1.0, SVG Export Plug-In . SVG Version: 6.00 Build 0)  -->
<svg version="1.1" id="Layer_1" xmlns="http://www.w3.org/2000/svg" xmlns:xlink="http://www.w3.org/1999/xlink" x="0px" y="0px"
	 width="512px" height="512px" viewBox="0 0 512 512" style="enable-background:new 0 0 512 512;" xml:space="preserve">
<style type="text/css">
	.st0{fill:#4B63DF;}
	.st1{fill:#2F47AD;}
	.st2{fill:#FFFFFF;}
	.st3{fill:url(#SVGID_1_);}
	.st4{fill:url(#SVGID_2_);}
	.st5{fill:#3650BA;}
	.st6{fill:#172A68;}
	.st7{fill:none;stroke:#4B63DF;stroke-width:15;stroke-miterlimit:10;}
</style>
<path class="st6" d="M243,198.3c25.2,0.3,48,5,68.2,18.9c11.6,8,20.8,18.2,27.3,30.7c2.6,5,2.4,10.1-1,14.7c-3.4,4.5-8,6.6-13.6,5.6
	c-4-0.6-7.3-2.6-9.2-6.1c-12.2-22.4-32.5-31.9-56.5-34.8c-16.7-2-33.2-1-49,5.7c-11,4.7-19.7,12-24.7,23c-1,2.3-2.2,1.9-3.8,1.5
	c-7.2-1.9-14.4-3.9-21.7-5.5c-3-0.7-2.7-2-1.9-4.1c4.6-11.9,12-21.7,21.9-29.7c13.3-10.7,28.9-16.1,45.6-18.5
	C231,198.8,237.6,198.6,243,198.3z"/>
<path class="st6" d="M300.7,148.6c-12.1-0.3-22.1-10.7-21.7-22.8c0.4-12.2,10.4-22,22.3-21.8c12.3,0.1,22.5,10.6,22.2,22.8
	C323.2,139,312.8,148.9,300.7,148.6z"/>
<path class="st6" d="M211.5,126.3c0,12.2-10.1,22.3-22.2,22.3c-12.2,0-22.2-10.1-22.2-22.3c0-12.2,10-22.3,22.2-22.3
	C201.4,104,211.5,114.1,211.5,126.3z"/>
<circle class="st7" cx="365.9" cy="389" r="98.9"/>
<path class="st7" d="M269.9,413.1c-4.7,0.5-9.4,1-14.2,1.5c-9,1-96.8,9-160-60.3C34.5,287,47.9,203.5,49.6,193.8
	c2-13.8,14.2-86.4,80.6-133.7c8.1-5.8,52.2-36.2,116.3-36c25.5,0.1,92.8,5,144.9,60.2c44.3,46.8,57.8,108.8,50.8,159.6
	c-3.1,22.2-9.7,40-15.3,52.2c-2.4,4.4-4.8,8.8-7.2,13.2"/>
<path class="st6" d="M375.5,393.6l41-41c2.7-2.7,2.7-7,0-9.7c-2.7-2.7-7-2.7-9.7,0l-41,41l-41-41c-2.7-2.7-7-2.7-9.7,0
	c-2.7,2.7-2.7,7,0,9.7l41,41l-41,41c-2.7,2.7-2.7,7,0,9.7c1.3,1.3,3.1,2,4.8,2c1.7,0,3.5-0.7,4.8-2l41-41l41,41c1.3,1.3,3.1,2,4.8,2
	s3.5-0.7,4.8-2c2.7-2.7,2.7-7,0-9.7L375.5,393.6z"/>
</svg>
