<?xml version="1.0" encoding="UTF-8"?>
<!DOCTYPE svg PUBLIC "-//W3C//DTD SVG 1.1//EN" "http://www.w3.org/Graphics/SVG/1.1/DTD/svg11.dtd">
<!-- Creator: CorelDRAW 2020 (64-Bit) -->
<svg xmlns="http://www.w3.org/2000/svg" xml:space="preserve" width="1.43389in" height="0.2in" version="1.1" style="shape-rendering:geometricPrecision; text-rendering:geometricPrecision; image-rendering:optimizeQuality; fill-rule:evenodd; clip-rule:evenodd"
viewBox="0 0 1393.28 1376.23"
 xmlns:xlink="http://www.w3.org/1999/xlink"
 xmlns:xodm="http://www.corel.com/coreldraw/odm/2003">
 <defs>
  <style type="text/css">
   <![CDATA[
    .fil0 {fill:#999999}
   ]]>
  </style>
 </defs>
 <g id="Layer_x0020_1">
  <metadata id="CorelCorpID_0Corel-Layer"/>
  <path class="fil0" d="M505.99 0c279.45,0 505.99,226.53 505.99,505.99 0,124.12 -44.72,237.8 -118.9,325.82l487.77 473.81c16.24,15.77 16.61,41.94 0.85,58.17l-0.01 0.01c-15.78,16.24 -41.94,16.62 -58.18,0.85l-488.35 -474.39c-88.48,75.87 -203.46,121.71 -329.16,121.71 -279.45,0 -505.99,-226.53 -505.99,-505.99 0,-279.45 226.53,-505.99 505.99,-505.99zm0 77.9c236.43,0 428.08,191.65 428.08,428.08 0,236.43 -191.65,428.08 -428.08,428.08 -236.43,0 -428.08,-191.65 -428.08,-428.08 0,-236.43 191.65,-428.08 428.08,-428.08z"/>
 </g>
</svg>
