<?xml version="1.0" encoding="utf-8"?>
<!-- Generator: Adobe Illustrator 22.1.0, SVG Export Plug-In . SVG Version: 6.00 Build 0)  -->
<svg version="1.1" id="Layer_1" xmlns="http://www.w3.org/2000/svg" xmlns:xlink="http://www.w3.org/1999/xlink" x="0px" y="0px"
	 width="512px" height="512px" viewBox="0 0 512 512" style="enable-background:new 0 0 512 512;" xml:space="preserve">
<style type="text/css">
	.st0{fill:#4B63DF;}
	.st1{fill:#2F47AD;}
	.st2{fill:#FFFFFF;}
	.st3{fill:url(#SVGID_1_);}
	.st4{fill:url(#SVGID_2_);}
	.st5{fill:#3650BA;}
	.st6{fill:#172A68;}
	.st7{fill:none;stroke:#4B63DF;stroke-width:15;stroke-miterlimit:10;}
</style>
<g>
	<g>
		<path class="st5" d="M434.2,118.6c-5.6-5.6-14.6-5.6-20.1,0L243.1,289.1l-61.7-67c-5.3-5.8-14.3-6.2-20.1-0.8
			c-5.8,5.3-6.2,14.3-0.8,20.1l71.7,77.9c2.6,2.9,6.3,4.5,10.2,4.6c0.1,0,0.2,0,0.3,0c3.8,0,7.4-1.5,10.1-4.2l181.4-181
			C439.8,133.2,439.8,124.2,434.2,118.6z"/>
	</g>
</g>
<g>
	<g>
		<path class="st0" d="M430.8,241.8c-7.9,0-14.2,6.4-14.2,14.2c0,88.5-72,160.5-160.5,160.5c-88.5,0-160.5-72-160.5-160.5
			c0-88.5,72-160.5,160.5-160.5c7.9,0,14.2-6.4,14.2-14.2c0-7.9-6.4-14.2-14.2-14.2C151.8,67,67,151.8,67,256
			c0,104.2,84.8,189,189,189c104.2,0,189-84.8,189-189C445,248.1,438.7,241.8,430.8,241.8z"/>
	</g>
</g>
</svg>
