<?xml version="1.0" encoding="utf-8"?>
<!-- Generator: Adobe Illustrator 22.1.0, SVG Export Plug-In . SVG Version: 6.00 Build 0)  -->
<svg version="1.1" id="Layer_1" xmlns="http://www.w3.org/2000/svg" xmlns:xlink="http://www.w3.org/1999/xlink" x="0px" y="0px"
	 width="512px" height="512px" viewBox="0 0 512 512" style="enable-background:new 0 0 512 512;" xml:space="preserve">
<style type="text/css">
	.st0{fill:#4B63DF;}
	.st1{fill:#2F47AD;}
	.st2{fill:#FFFFFF;}
	.st3{fill:url(#SVGID_1_);}
	.st4{fill:url(#SVGID_2_);}
	.st5{fill:#3650BA;}
	.st6{fill:#172A68;}
	.st7{font-family:'Montserrat-SemiBold';}
	.st8{font-size:91.1633px;}
	.st9{fill:none;stroke:#4B63DF;stroke-width:15;stroke-miterlimit:10;}
</style>
<path class="st0" d="M511.6,306.1c-1.5-17.1-10.8-30.2-25.9-36.9v-67.4c0-24.4-19.8-44.2-44.2-44.2h-29.2
	c0.2-24.3-6.7-47.9-19.4-68.2c-2.2-3.5-6.8-4.6-10.3-2.4c-3.5,2.2-4.6,6.8-2.4,10.3c11.8,18.9,17.4,39.8,17.1,60.3H114.7
	C113.8,91,175.5,32.7,256,32.7c39,0,75.3,13.6,102.2,38.3c3.1,2.8,7.8,2.6,10.6-0.5c2.8-3.1,2.6-7.8-0.5-10.6
	C338.6,32.7,298.7,17.7,256,17.7c-85.5,0-157,62-156.3,139.9H70.5c-24.4,0-44.2,19.8-44.2,44.2v67.4C11.2,275.9,1.9,289,0.4,306.1
	c-2.5,28.4,5.8,47.1,25.9,58.7v85.3c0,20.5,13.9,38.2,33.8,43c4,1,8.1-1.5,9-5.5c1-4-1.5-8.1-5.5-9c-13.1-3.2-22.3-14.8-22.3-28.4
	V370c16.4,2.3,32.3-5.4,40-20.2c10.3-19.8,2.5-44.2-17.3-54.5C48,287,44.9,284.1,41.3,273.2v-71.4c0-16.1,13.1-29.2,29.2-29.2h371
	c16.1,0,29.2,13.1,29.2,29.2v71.4c-3.6,10.9-6.7,13.8-22.7,22.1c-19.8,10.3-27.5,34.7-17.3,54.5c7.7,14.8,23.6,22.4,40,20.2v80.2
	c0,16.1-13.1,29.2-29.2,29.2H97.8c-4.1,0-7.5,3.4-7.5,7.5s3.4,7.5,7.5,7.5h343.7c24.4,0,44.2-19.8,44.2-44.2v-85.3
	C505.8,353.1,514,334.5,511.6,306.1L511.6,306.1z M57.1,308.6c12.4,6.5,17.3,21.8,10.9,34.3c-6.4,12.4-22,15.9-34,9
	c-15-8.6-20.5-21.9-18.6-44.5c0.7-7.6,3.8-17.3,14.2-23.1C34.5,295.4,41.5,300.5,57.1,308.6L57.1,308.6z M478.1,351.9
	c-12.1,6.9-27.6,3.4-34-9c-6.5-12.4-1.6-27.8,10.9-34.3c15.6-8.1,22.6-13.2,27.6-24.3c10.4,5.8,13.5,15.4,14.2,23.1
	C498.6,330,493,343.3,478.1,351.9z M264.9,111.4c-2.3,2.6-5.5,4.1-8.9,4.1c-3.4,0-6.7-1.5-8.9-4.1c-2.7-3.1-7.5-3.4-10.6-0.7
	c-3.1,2.7-3.4,7.5-0.7,10.6c5.1,5.9,12.5,9.2,20.3,9.2s15.1-3.4,20.3-9.2c2.7-3.1,2.4-7.9-0.7-10.6
	C272.4,108,267.7,108.3,264.9,111.4L264.9,111.4z M173.2,100.3c0,4.1,3.4,7.5,7.5,7.5s7.5-3.4,7.5-7.5c0-3.5,2.8-6.3,6.3-6.3
	c3.5,0,6.3,2.8,6.3,6.3c0,4.1,3.4,7.5,7.5,7.5c4.1,0,7.5-3.4,7.5-7.5c0-11.7-9.5-21.3-21.3-21.3C182.8,79,173.2,88.5,173.2,100.3z
	 M296.2,100.3c0,4.1,3.4,7.5,7.5,7.5s7.5-3.4,7.5-7.5c0-3.5,2.8-6.3,6.3-6.3c3.5,0,6.3,2.8,6.3,6.3c0,4.1,3.4,7.5,7.5,7.5
	s7.5-3.4,7.5-7.5c0-11.7-9.5-21.3-21.3-21.3C305.8,79,296.2,88.5,296.2,100.3z"/>
<text transform="matrix(1 0 0 1 87.1216 307.541)"><tspan x="0" y="0" class="st6 st7 st8">THANK</tspan><tspan x="64.2" y="109.4" class="st6 st7 st8">YOU</tspan></text>
<path class="st6" d="M264.7,111.4c-2.3,2.6-5.5,4.1-8.9,4.1c-3.4,0-6.7-1.5-8.9-4.1c-2.7-3.1-7.5-3.4-10.6-0.7
	c-3.1,2.7-3.4,7.5-0.7,10.6c5.1,5.9,12.5,9.2,20.3,9.2c7.8,0,15.1-3.4,20.3-9.2c2.7-3.1,2.4-7.9-0.7-10.6
	C272.2,108,267.4,108.3,264.7,111.4L264.7,111.4z"/>
<path class="st6" d="M173,100.3c0,4.1,3.4,7.5,7.5,7.5c4.1,0,7.5-3.4,7.5-7.5c0-3.5,2.8-6.3,6.3-6.3s6.3,2.8,6.3,6.3
	c0,4.1,3.4,7.5,7.5,7.5s7.5-3.4,7.5-7.5c0-11.7-9.5-21.3-21.3-21.3C182.5,79,173,88.5,173,100.3z"/>
<path class="st6" d="M296,100.3c0,4.1,3.4,7.5,7.5,7.5c4.1,0,7.5-3.4,7.5-7.5c0-3.5,2.8-6.3,6.3-6.3c3.5,0,6.3,2.8,6.3,6.3
	c0,4.1,3.4,7.5,7.5,7.5s7.5-3.4,7.5-7.5c0-11.7-9.5-21.3-21.3-21.3C305.6,79,296,88.5,296,100.3z"/>
</svg>
