<?xml version="1.0" encoding="utf-8"?>
<!-- Generator: Adobe Illustrator 22.1.0, SVG Export Plug-In . SVG Version: 6.00 Build 0)  -->
<svg version="1.0" id="Layer_1" xmlns="http://www.w3.org/2000/svg" xmlns:xlink="http://www.w3.org/1999/xlink" x="0px" y="0px"
	 width="48px" height="48px" viewBox="0 0 48 48" enable-background="new 0 0 48 48" xml:space="preserve">
<path fill="#CCCCCC" d="M40.1,48H7.9C3.5,48,0,44.5,0,40.1V7.9C0,3.5,3.5,0,7.9,0h32.2C44.4,0,48,3.5,48,7.9v32.2
	C48,44.5,44.4,48,40.1,48z M7.9,1C4.1,1,1,4.1,1,7.9v32.2C1,43.9,4.1,47,7.9,47h32.2c3.8,0,6.9-3.1,6.9-6.9V7.9
	C47,4.1,43.9,1,40.1,1H7.9z"/>
<path fill-rule="evenodd" clip-rule="evenodd" fill="#333333" d="M13.5,16.2h12.9c1.7,0,3.1,1.4,3.1,3.1v9.5c0,1.7-1.4,3.1-3.1,3.1
	H13.5c-1.7,0-3.1-1.4-3.1-3.1v-9.5C10.4,17.5,11.8,16.2,13.5,16.2L13.5,16.2z M32,28.9l5.6,1.7V17.3L32,19V28.9z"/>
</svg>
