<?xml version="1.0" encoding="utf-8"?>
<!-- Generator: Adobe Illustrator 22.1.0, SVG Export Plug-In . SVG Version: 6.00 Build 0)  -->
<svg version="1.0" id="Layer_1" xmlns="http://www.w3.org/2000/svg" xmlns:xlink="http://www.w3.org/1999/xlink" x="0px" y="0px"
	 width="48px" height="48px" viewBox="0 0 48 48" enable-background="new 0 0 48 48" xml:space="preserve">
<g>
	<path fill="#4B64E0" d="M40.1,48.2H7.9c-4.4,0-7.9-3.6-7.9-8V7.8c0-4.4,3.5-8,7.9-8h32.2c4.4,0,7.9,3.6,7.9,8v32.5
		C48,44.6,44.4,48.2,40.1,48.2z M7.9,0.8C4.1,0.8,1,3.9,1,7.8v32.5c0,3.9,3.1,7,6.9,7h32.2c3.8,0,6.9-3.1,6.9-7V7.8
		c0-3.9-3.1-7-6.9-7H7.9z"/>
	<path fill-rule="evenodd" clip-rule="evenodd" fill="#4B64E0" d="M13.5,16.1h12.9c1.7,0,3.1,1.4,3.1,3.1v9.6c0,1.7-1.4,3.1-3.1,3.1
		H13.5c-1.7,0-3.1-1.4-3.1-3.1v-9.6C10.4,17.5,11.8,16.1,13.5,16.1L13.5,16.1z"/>
	<polygon fill-rule="evenodd" clip-rule="evenodd" fill="#4B64E0" points="32,19 37.6,17.2 37.6,30.7 32,29 	"/>
</g>
</svg>
