<?xml version="1.0" encoding="utf-8"?>
<!-- Generator: Adobe Illustrator 22.1.0, SVG Export Plug-In . SVG Version: 6.00 Build 0)  -->
<svg version="1.0" id="Layer_1" xmlns="http://www.w3.org/2000/svg" xmlns:xlink="http://www.w3.org/1999/xlink" x="0px" y="0px"
	 width="48px" height="48px" viewBox="0 0 48 48" enable-background="new 0 0 48 48" xml:space="preserve">
<g>
	<path fill="#4B64E0" d="M40.1,48.2H7.9c-4.4,0-7.9-3.6-7.9-8V7.7c0-4.4,3.5-8,7.9-8h32.2c4.4,0,7.9,3.6,7.9,8v32.5
		C48,44.7,44.5,48.2,40.1,48.2z M7.9,0.7C4.1,0.7,1,3.9,1,7.7v32.5c0,3.9,3.1,7,6.9,7h32.2c3.8,0,6.9-3.1,6.9-7V7.7
		c0-3.9-3.1-7-6.9-7H7.9z"/>
	<path fill="#4B64E0" d="M29.7,27.5c-0.7-0.7-1.6-0.7-2.3,0c-0.5,0.5-1.1,1.1-1.6,1.6c-0.1,0.1-0.2,0.2-0.4,0.1
		c-0.3-0.2-0.7-0.3-1.1-0.5c-1.6-1-2.9-2.3-4-3.7c-0.6-0.7-1.1-1.5-1.4-2.3c-0.1-0.2-0.1-0.3,0.1-0.4c0.5-0.5,1.1-1,1.6-1.6
		c0.7-0.7,0.7-1.6,0-2.4c-0.4-0.4-0.8-0.9-1.3-1.3c-0.4-0.4-0.9-0.9-1.3-1.3c-0.7-0.7-1.6-0.7-2.3,0c-0.6,0.6-1.1,1.1-1.6,1.6
		c-0.5,0.5-0.8,1.1-0.8,1.8c-0.1,1.1,0.2,2.2,0.6,3.3c0.8,2.2,2,4.1,3.5,5.8c2,2.4,4.4,4.3,7.1,5.6c1.2,0.6,2.6,1.1,3.9,1.2
		c1,0.1,1.8-0.2,2.5-1c0.4-0.5,1-1,1.5-1.5c0.7-0.8,0.7-1.6,0-2.4C31.4,29.3,30.5,28.4,29.7,27.5L29.7,27.5z"/>
	<path fill="#4B64E0" d="M28.8,23.9l1.7-0.3c-0.3-1.5-1-2.9-2.1-4.1c-1.2-1.2-2.6-1.9-4.2-2.1l-0.2,1.7c1.3,0.2,2.4,0.8,3.3,1.7
		C28,21.6,28.6,22.7,28.8,23.9L28.8,23.9z"/>
	<path fill="#4B64E0" d="M31.4,16.6c-1.9-1.9-4.4-3.2-7.1-3.5l-0.2,1.7c2.3,0.3,4.4,1.4,6.1,3.1c1.6,1.6,2.6,3.6,3,5.8l1.7-0.3
		C34.4,20.8,33.2,18.4,31.4,16.6L31.4,16.6z"/>
</g>
</svg>
