<?xml version="1.0" encoding="utf-8"?>
<!-- Generator: Adobe Illustrator 22.1.0, SVG Export Plug-In . SVG Version: 6.00 Build 0)  -->
<svg version="1.0" id="Layer_1" xmlns="http://www.w3.org/2000/svg" xmlns:xlink="http://www.w3.org/1999/xlink" x="0px" y="0px"
	 width="48px" height="48px" viewBox="0 0 48 48" enable-background="new 0 0 48 48" xml:space="preserve">
<g>
	<path fill="#CCCCCC" d="M40.1,48.5H7.9c-4.4,0-7.9-3.6-7.9-8V8c0-4.4,3.5-8,7.9-8h32.2C44.5,0,48,3.6,48,8v32.5
		C48,44.9,44.5,48.5,40.1,48.5z M7.9,1C4.1,1,1,4.1,1,8v32.5c0,3.9,3.1,7,6.9,7h32.2c3.8,0,6.9-3.1,6.9-7V8c0-3.9-3.1-7-6.9-7H7.9z"
		/>
	<path fill="#333333" d="M29.7,27.8c0.9,0.9,1.7,1.7,2.6,2.6c0.7,0.7,0.7,1.6,0,2.4c-0.5,0.5-1,1-1.5,1.5c-0.7,0.8-1.5,1-2.5,1
		c-1.4-0.1-2.7-0.6-3.9-1.2c-2.7-1.4-5.1-3.3-7.1-5.6c-1.5-1.8-2.7-3.7-3.5-5.8c-0.4-1.1-0.7-2.1-0.6-3.3c0.1-0.7,0.3-1.3,0.8-1.8
		c0.6-0.5,1.1-1.1,1.6-1.6c0.7-0.7,1.6-0.7,2.3,0c0.4,0.4,0.9,0.9,1.3,1.3c0.4,0.4,0.9,0.8,1.3,1.3c0.7,0.8,0.7,1.6,0,2.4
		c-0.5,0.6-1.1,1.1-1.6,1.6c-0.1,0.2-0.2,0.3-0.1,0.4c0.4,0.8,0.9,1.6,1.4,2.3c1.1,1.4,2.4,2.7,4,3.7c0.4,0.2,0.7,0.4,1.1,0.5
		c0.2,0.1,0.3,0.1,0.4-0.1c0.5-0.6,1.1-1.1,1.6-1.6C28,27.1,28.9,27.1,29.7,27.8L29.7,27.8z M28.8,24.1l1.7-0.3
		c-0.3-1.5-1-2.9-2.1-4.1c-1.2-1.2-2.6-1.9-4.2-2.1l-0.2,1.7c1.3,0.2,2.4,0.8,3.3,1.7C28,21.9,28.6,22.9,28.8,24.1L28.8,24.1z
		 M31.4,16.8c-1.9-1.9-4.4-3.2-7.1-3.5L24.1,15c2.3,0.3,4.4,1.4,6.1,3.1c1.6,1.6,2.6,3.6,3,5.8l1.7-0.3C34.4,21,33.2,18.7,31.4,16.8
		L31.4,16.8z"/>
</g>
</svg>
